<?xml version="1.0" encoding="UTF-8" standalone="no"?>
<svg
   viewBox="0 0 857.27736 857.27736"
   version="1.1"
   id="svg10"
   sodipodi:docname="logo.svg"
   xml:space="preserve"
   width="857.27734"
   height="857.27734"
   inkscape:version="1.2.2 (732a01da63, 2022-12-09)"
   xmlns:inkscape="http://www.inkscape.org/namespaces/inkscape"
   xmlns:sodipodi="http://sodipodi.sourceforge.net/DTD/sodipodi-0.dtd"
   xmlns="http://www.w3.org/2000/svg"
   xmlns:svg="http://www.w3.org/2000/svg"><defs
     id="defs14" /><sodipodi:namedview
     id="namedview12"
     pagecolor="#ffffff"
     bordercolor="#000000"
     borderopacity="0.25"
     inkscape:showpageshadow="2"
     inkscape:pageopacity="0.0"
     inkscape:pagecheckerboard="0"
     inkscape:deskcolor="#d1d1d1"
     showgrid="false"
     inkscape:zoom="0.301211"
     inkscape:cx="262.27462"
     inkscape:cy="308.75366"
     inkscape:window-width="1920"
     inkscape:window-height="1027"
     inkscape:window-x="-8"
     inkscape:window-y="22"
     inkscape:window-maximized="1"
     inkscape:current-layer="svg10" /><path
     id="path3266"
     style="display:inline;opacity:1;fill:#ffffff;fill-opacity:1;fill-rule:evenodd;stroke:none;stroke-width:50;stroke-dasharray:none;stroke-opacity:1"
     d="M 428.64062,0 A 428.63943,428.63947 0 0 0 0,428.63868 428.63943,428.63947 0 0 0 428.64062,857.27735 428.63943,428.63947 0 0 0 857.27734,428.63868 428.63943,428.63947 0 0 0 428.64062,0 Z M 540.94726,62.58789 A 383.33612,383.33612 0 0 1 811.97461,428.63868 383.33612,383.33612 0 0 1 428.64062,811.97461 383.33612,383.33612 0 0 1 47.62305,458.10157 l 46.94726,28.35742 15.35547,-26.97461 -39.63281,-44.61133 9.96093,-37.55859 37.97071,24.07031 7.67773,-24.69141 29.87891,18.88086 5.81054,61.62696 24.69141,17.63671 8.50781,9.96094 -17.84375,8.0918 24.89844,152.30078 38.80274,15.35547 -6.01758,-110.38672 -14.11133,-16.59961 25.52344,5.18555 L 265.7539,662 l 238.44727,85.82618 11.36914,-3.30079 7.04297,-49.22461 9.61133,-24.86914 -9.83008,-23.76953 15.03906,-60.52343 -5.94336,-3.52149 -13.13086,28.46485 -1.06445,-41.30274 -8.69336,2.42188 0.69727,5.20898 -6.05274,-0.11133 -0.89453,-14.27539 -7.67773,4.15039 -9.12891,-3.99414 -4.01367,15.33008 -1.83399,-16.72656 -10.63672,3.30078 -6.01562,-4.10742 -1.17383,6.30859 -2.12695,-8.06836 -8.38477,-0.13476 -1.45312,22.7207 -5.60156,-11.3086 -4.25391,14.2129 -6.43164,-24.17383 -8.50781,0.10547 -0.10352,42.12109 -4.66992,-0.83008 1.76562,-42.64062 -27.59765,-3.52735 -10.27149,23.55078 -4.98047,-18.05273 -29.67187,-0.10352 2.07617,9.33789 0.41406,14.93946 h -5.39453 l -9.75195,-19.29688 -35.89649,-14.73242 9.33594,55.81641 -43.1582,-95.24024 13.90234,-29.25781 -35.27539,-41.70703 -22.4082,17.22266 -34.0293,-28.88086 -6.84765,-53.91016 -53.74219,-31.95313 23.44726,-1.66015 45.65039,-45.65039 16.1836,-75.73438 21.37305,-6.43359 c 0,0 0.4136,-18.67381 0.62109,-22.20117 0.2075,-3.52743 -1.45117,-27.59766 -1.45117,-27.59766 l 6.22461,0.20703 5.80859,42.95313 34.0293,-12.03516 7.88476,-109.97266 20.12891,-8.09179 -3.16797,100.24219 -3.66797,18.48632 -53.33789,78.80664 13.90235,39.42383 -81.13086,22.20313 -0.20899,4.77148 -4.35742,7.67774 3.94336,6.84765 14.52344,1.45117 25.38281,5.78907 27.58398,45.77734 29.19727,39.17383 7.92187,3.22851 36.68164,-11.88476 19.80665,32.71875 10.27148,44.89648 4.54687,1.76172 3.52149,-2.20117 4.69531,0.29297 3.22852,22.74219 5.29883,9.84765 4.875,-3.42383 3.00976,-0.3125 0.62109,7.67774 6.53711,-0.41406 2.49024,-13.90235 h 1.76367 l 10.68555,7.98828 3.21679,-12.03515 5.49805,-0.62305 0.72656,8.92383 -2.80078,3.31836 2.17774,4.5664 7.4707,-3.73632 1.55469,-18.57032 3.14257,-0.23633 -0.14648,5.42969 5.20898,6.89453 8.50977,5.72266 0.73242,-6.01562 5.72266,-6.45508 0.51367,-8.2168 3.81445,-0.2207 2.49414,15.69922 9.5,0.4414 2.89844,6.82227 3.96094,0.0723 -0.0723,-13.86523 2.78711,-1.68555 4.18164,-0.58789 2.71484,8.58399 2.19922,1.24609 -1.98047,-19.07422 h 3.59571 l 5.64843,21.49609 5.42774,-0.66015 6.89648,-4.69531 7.32422,2.37695 -0.41602,7.4707 3.11329,11.82617 4.35742,-1.86718 5.60156,0.20703 -0.20703,-3.73438 4.77344,-8.29883 7.67578,0.6211 1.45313,18.67578 5.1875,-4.98047 6.64062,3.32031 -1.66016,-36.10547 c 0,0 15.35491,-17.01424 19.08984,-21.99414 3.73492,-4.97984 21.99414,-15.35351 21.99414,-15.35351 L 601.68944,364.24418 633.22851,289.54497 598.78515,226.46684 541.39453,64.17778 Z M 390.63867,166.07618 c 11.15081,0.14672 14.9639,-0.29334 15.55078,2.34765 0.58689,2.64099 4.10938,21.56641 4.10938,21.56641 l 6.74804,-3.51953 3.81641,-9.83203 10.5625,-4.8418 c 0,0 18.99975,11.92513 25.22461,27.07226 6.22485,15.14716 6.43164,24.48438 6.43164,24.48438 l 2.07617,2.69726 c 0,0 -0.69548,12.2427 -4.49805,20.75 -3.80256,8.50732 -11.47851,19.91993 -11.47851,19.91993 l -0.62305,7.67773 -15.97656,40.875 c 0,0 -31.33252,19.92058 -35.48242,21.37305 -4.14991,1.45247 -27.80491,7.05412 -33.82227,6.43164 -6.01736,-0.62249 -38.59375,-6.43164 -38.59375,-6.43164 0,0 -13.48822,-4.98106 -17.01562,-9.96094 -3.52743,-4.97988 -16.39174,-26.55845 -17.63672,-33.61328 -1.24497,-7.05483 -3.32031,-20.54297 -3.32031,-20.54297 0,0 18.09556,-38.08114 25.43164,-49.52539 7.33606,-11.44426 26.70312,-36.38672 26.70312,-36.38672 l 1.90625,-5.42969 c 0,0 38.73591,-15.25804 49.88672,-15.11132 z m -19.19336,31.5664 c -1.24971,0.0281 -4.2832,2.10547 -4.2832,2.10547 l -10.49024,18.12109 c 0,0 0.0733,1.53883 1.83399,1.68555 1.76065,0.14672 4.25458,-1.76071 5.64843,-1.17383 1.39386,0.58689 -1.90758,8.14379 -1.6875,10.41797 0.22009,2.27419 8.65625,4.76758 8.65625,4.76758 0,0 10.85743,-19.29311 10.85743,-19.80664 0,-0.51352 -9.24219,-10.71094 -9.24219,-10.71094 0,0 -0.14725,-4.54764 -0.88086,-5.28125 -0.0917,-0.0917 -0.23358,-0.12901 -0.41211,-0.125 z m 175.4668,35.04883 28.52929,20.23047 24.56836,49.31055 -22.5957,61.91796 -6.60156,56.04688 -3.66797,0.88086 c 0,0 -29.93204,-56.04794 -33.30664,-57.80859 -3.3746,-1.76066 -4.54883,1.61328 -4.54883,1.61328 l -14.67187,49.00586 -11.58985,34.77343 -4.40234,0.29297 -5.94141,-32.21484 c 0,0 -20.36762,-6.7448 -21.92383,-8.19727 -1.55621,-1.45246 8.81939,-51.14748 9.23438,-53.32617 0.41499,-2.1787 14.629,-17.63771 15.45898,-19.81641 0.82998,-2.17869 -12.97004,-44.71484 -11.51758,-44.71484 1.45247,0 21.47686,23.86328 23.9668,29.98438 2.48994,6.1211 5.08339,0.932 6.22461,-0.10547 1.14122,-1.03748 5.60156,-23.03125 5.60156,-23.03125 0,0 -3.83868,-8.40324 -4.35742,-9.75196 -0.51874,-1.34869 -18.15416,-25.52293 -19.08789,-27.49414 -0.93373,-1.97117 -0.93386,-3.42207 0.93359,-5.08203 1.86746,-1.65997 14.21355,8.09111 15.66602,8.40235 1.45246,0.31125 7.05432,-1.86748 8.0918,-4.35743 1.03747,-2.48991 7.67616,-10.37491 10.99609,-13.90234 3.31993,-3.52743 14.94141,-12.65625 14.94141,-12.65625 z M 370.4707,268.47852 c -2.57665,0.0491 -5.21484,1.62305 -5.21484,1.62305 0,0 -6.4568,14.81764 -6.60352,15.25781 -0.14672,0.44016 -0.58594,3.30273 -0.58594,3.30273 0,0 -3e-5,1.10015 1.83399,1.98047 1.83402,0.88033 4.18164,-1.61523 4.18164,-1.61523 0,0 2.64068,8.21809 3.81445,9.83203 1.17377,1.61393 6.45552,3.51962 7.9961,2.85937 1.54057,-0.66024 6.38177,-5.42817 7.6289,-6.96875 1.24713,-1.54057 -6.45508,-9.3164 -6.45508,-9.3164 0,0 -1.76062,-8.36311 -1.83398,-9.6836 -0.0734,-1.32048 -0.8069,-6.67593 -3.66797,-7.18945 -0.35763,-0.0642 -0.72566,-0.0891 -1.09375,-0.082 z m 91.7832,22.93359 12.44922,39.63086 -17.22265,18.67578 -1.86719,27.80469 -2.49024,0.51758 -6.53515,-30.50195 -9.96094,-0.83008 c 0,0 9.64797,-20.12603 9.85547,-20.54102 0.2075,-0.41499 7.88477,-10.68554 7.88477,-10.68554 z M 319.47851,448.36719 c 0,0 -10.85848,9.68372 -12.61914,12.03125 -1.76066,2.34754 -7.04297,7.33594 -7.04297,7.33594 l 2.93555,41.37695 23.76758,45.62891 3.74609,1.32226 5.20508,-2.34765 0.73242,-9.09766 c 0,0 5.72225,0.29362 7.18946,3.52149 1.46721,3.22783 2.20117,6.89648 2.20117,6.89648 l 8.95117,1.17383 7.48242,-1.90821 -2.64062,-25.38281 -6.16211,-1.9082 c 0,0 -9.83103,-6.74833 -14.08594,-12.61719 -4.25491,-5.86882 -6.75,-9.97656 -6.75,-9.97656 z" /></svg>
